<svg width="1179" height="302" viewBox="0 0 1179 302" fill="none" xmlns="http://www.w3.org/2000/svg">
<path d="M0 74.5739C0 33.3879 33.3879 0 74.5739 0H313V227.426C313 268.612 279.612 302 238.426 302H0V74.5739Z" fill="white"/>
<g clip-path="url(#clip0_13_12)">
<path d="M117.369 237.333C117.369 227.357 117.369 227.357 107.586 227.357C88.2618 227.357 81.2483 220.446 81.2483 201.385V191.529C57.1076 190.687 52.5423 188.333 47.8867 179.609C45.1275 174.441 45.1275 174.441 45.1074 117.007C45.0874 34.7922 37.3314 42.5549 119.466 42.5549C178.524 42.5549 178.524 42.5549 183.671 45.5598C191.106 49.9069 194.005 56.097 194.467 68.5875C194.818 77.8827 194.818 77.8827 205.002 78.2933C223.715 79.0446 230.748 86.2764 230.748 104.777C230.748 113.932 230.748 113.932 240.762 114.342C253.063 114.843 259.725 117.908 263.859 124.96C266.367 129.227 266.367 129.227 266.648 187.292C266.979 255.794 267.331 253.139 257.177 259.68C251.317 263.456 251.317 263.456 191.868 263.436C132.419 263.416 132.419 263.416 127.794 260.702C120.229 256.264 117.369 249.854 117.369 237.333ZM120.409 207.074C120.419 215.748 120.65 223.411 120.911 224.102C121.282 225.083 131.346 225.304 167.537 225.103C213.691 224.853 213.691 224.853 218.407 222.179C227.959 216.75 227.738 218.152 227.738 117.177H212.246C200.949 117.177 196.534 117.517 195.942 118.429C195.49 119.12 194.908 132.622 194.628 148.438C193.875 191.398 193.985 191.298 120.379 191.298L120.409 207.074ZM145.212 81.128C78.76 81.148 84.3186 75.5889 84.2584 189.295H117.369V160.117C117.369 115.324 117.52 115.174 191.617 115.174V81.118L145.212 81.128Z" fill="black"/>
<path d="M145.212 81.128L191.617 81.1179V115.174C117.52 115.174 117.369 115.324 117.369 160.117V189.295H84.2584C84.3186 75.5889 78.76 81.148 145.212 81.128Z" fill="white"/>
<path d="M120.409 207.074L120.379 191.298C193.985 191.298 193.875 191.398 194.628 148.438C194.908 132.622 195.49 119.12 195.942 118.429C196.534 117.517 200.949 117.177 212.246 117.177H227.738C227.738 218.152 227.959 216.75 218.407 222.179C213.691 224.853 213.691 224.853 167.537 225.103C131.346 225.304 121.282 225.083 120.911 224.102C120.65 223.411 120.419 215.748 120.409 207.074Z" fill="white"/>
</g>
<path d="M444.401 97.5345C460.646 97.5345 473.073 100.493 481.68 106.41C490.394 112.328 494.751 121.58 494.751 134.168C494.751 140.73 493.568 146.379 491.201 151.112C488.942 155.739 485.606 159.558 481.195 162.57C476.784 165.475 471.405 167.627 465.057 169.026C458.71 170.424 451.448 171.123 443.271 171.123H433.104V210.5H412.771V100.278C417.504 99.2021 422.722 98.5028 428.424 98.18C434.234 97.7497 439.56 97.5345 444.401 97.5345ZM445.853 115.125C440.689 115.125 436.44 115.286 433.104 115.609V153.694H442.949C452.739 153.694 460.27 152.35 465.542 149.66C470.813 146.863 473.449 141.645 473.449 134.006C473.449 130.348 472.75 127.282 471.351 124.808C469.953 122.333 468.016 120.397 465.542 118.998C463.067 117.599 460.109 116.631 456.666 116.093C453.331 115.448 449.726 115.125 445.853 115.125ZM503.099 168.703C503.099 161.279 504.175 154.77 506.326 149.176C508.586 143.581 511.544 138.955 515.202 135.297C518.86 131.532 523.056 128.734 527.79 126.906C532.524 124.969 537.365 124.001 542.314 124.001C553.933 124.001 562.971 127.605 569.426 134.813C575.989 142.021 579.27 152.78 579.27 167.089C579.27 168.165 579.216 169.402 579.109 170.801C579.109 172.092 579.055 173.275 578.947 174.351H523.271C523.809 181.129 526.176 186.401 530.372 190.166C534.675 193.824 540.862 195.653 548.931 195.653C553.664 195.653 557.968 195.223 561.841 194.362C565.822 193.501 568.942 192.587 571.201 191.619L573.783 207.595C572.707 208.133 571.201 208.725 569.264 209.37C567.435 209.908 565.284 210.392 562.809 210.823C560.442 211.361 557.86 211.791 555.063 212.114C552.266 212.437 549.415 212.598 546.51 212.598C539.086 212.598 532.631 211.522 527.144 209.37C521.657 207.111 517.139 204.045 513.589 200.172C510.038 196.191 507.402 191.565 505.681 186.293C503.96 180.914 503.099 175.05 503.099 168.703ZM559.743 159.988C559.743 157.299 559.366 154.77 558.613 152.403C557.86 149.929 556.731 147.831 555.224 146.11C553.826 144.281 552.051 142.882 549.899 141.914C547.855 140.838 545.38 140.3 542.475 140.3C539.463 140.3 536.827 140.892 534.568 142.075C532.309 143.151 530.372 144.603 528.758 146.432C527.252 148.261 526.069 150.359 525.208 152.726C524.347 155.093 523.755 157.514 523.433 159.988H559.743ZM648.064 143.689C646.45 143.151 644.191 142.613 641.286 142.075C638.489 141.43 635.208 141.107 631.442 141.107C629.29 141.107 626.977 141.322 624.503 141.752C622.136 142.183 620.468 142.559 619.5 142.882V210.5H599.973V130.133C603.739 128.734 608.419 127.443 614.013 126.26C619.715 124.969 626.009 124.323 632.894 124.323C634.185 124.323 635.692 124.431 637.413 124.646C639.134 124.754 640.856 124.969 642.577 125.292C644.299 125.507 645.966 125.83 647.58 126.26C649.194 126.583 650.485 126.906 651.453 127.228L648.064 143.689ZM660.381 168.38C660.381 162.14 661.349 156.33 663.285 150.951C665.222 145.464 667.965 140.73 671.516 136.75C675.174 132.769 679.585 129.649 684.749 127.39C689.913 125.13 695.723 124.001 702.178 124.001C710.139 124.001 717.67 125.453 724.771 128.358L720.575 144.334C718.316 143.366 715.734 142.559 712.829 141.914C710.032 141.268 707.019 140.946 703.792 140.946C696.153 140.946 690.343 143.366 686.363 148.208C682.382 152.941 680.392 159.666 680.392 168.38C680.392 176.772 682.274 183.442 686.04 188.391C689.805 193.232 696.153 195.653 705.083 195.653C708.418 195.653 711.699 195.33 714.927 194.685C718.154 194.039 720.952 193.232 723.319 192.264L726.062 208.402C723.91 209.478 720.629 210.446 716.218 211.307C711.914 212.168 707.45 212.598 702.823 212.598C695.615 212.598 689.321 211.522 683.942 209.37C678.67 207.111 674.259 204.045 670.709 200.172C667.266 196.191 664.684 191.511 662.963 186.132C661.241 180.645 660.381 174.728 660.381 168.38ZM736.5 168.703C736.5 161.279 737.576 154.77 739.728 149.176C741.987 143.581 744.946 138.955 748.603 135.297C752.261 131.532 756.457 128.734 761.191 126.906C765.925 124.969 770.766 124.001 775.715 124.001C787.334 124.001 796.372 127.605 802.827 134.813C809.39 142.021 812.671 152.78 812.671 167.089C812.671 168.165 812.617 169.402 812.51 170.801C812.51 172.092 812.456 173.275 812.348 174.351H756.672C757.21 181.129 759.577 186.401 763.773 190.166C768.077 193.824 774.263 195.653 782.332 195.653C787.066 195.653 791.369 195.223 795.242 194.362C799.223 193.501 802.343 192.587 804.602 191.619L807.184 207.595C806.108 208.133 804.602 208.725 802.666 209.37C800.837 209.908 798.685 210.392 796.21 210.823C793.843 211.361 791.261 211.791 788.464 212.114C785.667 212.437 782.816 212.598 779.911 212.598C772.488 212.598 766.032 211.522 760.546 209.37C755.059 207.111 750.54 204.045 746.99 200.172C743.439 196.191 740.803 191.565 739.082 186.293C737.361 180.914 736.5 175.05 736.5 168.703ZM793.144 159.988C793.144 157.299 792.768 154.77 792.014 152.403C791.261 149.929 790.132 147.831 788.626 146.11C787.227 144.281 785.452 142.882 783.3 141.914C781.256 140.838 778.781 140.3 775.877 140.3C772.864 140.3 770.228 140.892 767.969 142.075C765.71 143.151 763.773 144.603 762.159 146.432C760.653 148.261 759.47 150.359 758.609 152.726C757.748 155.093 757.157 157.514 756.834 159.988H793.144ZM889.373 168.703C889.373 159.988 887.382 153.21 883.402 148.369C879.529 143.528 873.235 141.107 864.52 141.107C862.691 141.107 860.755 141.214 858.711 141.43C856.774 141.537 854.838 141.86 852.901 142.398V190.65C854.622 191.834 856.882 192.963 859.679 194.039C862.584 195.008 865.65 195.492 868.878 195.492C875.978 195.492 881.142 193.071 884.37 188.23C887.705 183.388 889.373 176.879 889.373 168.703ZM909.384 168.38C909.384 174.835 908.523 180.752 906.802 186.132C905.188 191.511 902.821 196.137 899.701 200.01C896.581 203.883 892.654 206.896 887.92 209.048C883.294 211.199 878.022 212.275 872.105 212.275C868.125 212.275 864.467 211.791 861.131 210.823C857.796 209.854 855.053 208.779 852.901 207.595V240.355H833.374V128.842C837.355 127.766 842.25 126.744 848.06 125.776C853.869 124.808 860.002 124.323 866.457 124.323C873.127 124.323 879.098 125.346 884.37 127.39C889.642 129.434 894.107 132.392 897.765 136.266C901.53 140.031 904.381 144.657 906.318 150.144C908.362 155.523 909.384 161.602 909.384 168.38ZM928.54 103.828L948.067 100.601V126.099H978.084V142.398H948.067V176.772C948.067 183.55 949.143 188.391 951.295 191.296C953.446 194.201 957.104 195.653 962.268 195.653C965.819 195.653 968.939 195.277 971.628 194.523C974.426 193.77 976.631 193.071 978.245 192.426L981.472 207.918C979.213 208.886 976.255 209.854 972.597 210.823C968.939 211.899 964.635 212.437 959.686 212.437C953.661 212.437 948.605 211.63 944.517 210.016C940.536 208.402 937.362 206.089 934.995 203.077C932.628 199.957 930.961 196.245 929.992 191.941C929.024 187.53 928.54 182.528 928.54 176.933V103.828ZM1020.33 199.849C1020.33 203.614 1019.03 206.681 1016.45 209.048C1013.98 211.414 1010.97 212.598 1007.42 212.598C1003.76 212.598 1000.69 211.414 998.217 209.048C995.742 206.681 994.505 203.614 994.505 199.849C994.505 196.083 995.742 193.017 998.217 190.65C1000.69 188.176 1003.76 186.939 1007.42 186.939C1010.97 186.939 1013.98 188.176 1016.45 190.65C1019.03 193.017 1020.33 196.083 1020.33 199.849ZM1070.94 196.783C1076.96 196.783 1081.54 196.46 1084.66 195.814V174.19C1083.58 173.867 1082.02 173.544 1079.98 173.221C1077.93 172.899 1075.67 172.737 1073.2 172.737C1071.05 172.737 1068.84 172.899 1066.58 173.221C1064.43 173.544 1062.44 174.136 1060.61 174.997C1058.89 175.857 1057.49 177.094 1056.41 178.708C1055.34 180.214 1054.8 182.151 1054.8 184.518C1054.8 189.144 1056.25 192.372 1059.16 194.201C1062.06 195.922 1065.99 196.783 1070.94 196.783ZM1069.32 124.001C1075.78 124.001 1081.21 124.808 1085.62 126.421C1090.03 128.035 1093.53 130.294 1096.11 133.199C1098.8 136.104 1100.69 139.654 1101.76 143.85C1102.95 147.939 1103.54 152.457 1103.54 157.406V208.563C1100.52 209.209 1095.95 209.962 1089.82 210.823C1083.79 211.791 1076.96 212.275 1069.32 212.275C1064.27 212.275 1059.64 211.791 1055.45 210.823C1051.25 209.854 1047.65 208.294 1044.63 206.143C1041.73 203.991 1039.42 201.194 1037.69 197.751C1036.08 194.308 1035.27 190.059 1035.27 185.002C1035.27 180.161 1036.19 176.072 1038.02 172.737C1039.95 169.402 1042.54 166.712 1045.76 164.668C1048.99 162.517 1052.7 161.01 1056.9 160.15C1061.2 159.181 1065.67 158.697 1070.29 158.697C1072.44 158.697 1074.7 158.859 1077.07 159.181C1079.44 159.397 1081.97 159.827 1084.66 160.472V157.245C1084.66 154.986 1084.39 152.834 1083.85 150.79C1083.31 148.746 1082.34 146.97 1080.94 145.464C1079.65 143.85 1077.88 142.613 1075.62 141.752C1073.47 140.892 1070.72 140.461 1067.39 140.461C1062.87 140.461 1058.73 140.784 1054.96 141.43C1051.2 142.075 1048.13 142.828 1045.76 143.689L1043.34 127.874C1045.82 127.013 1049.42 126.152 1054.15 125.292C1058.89 124.431 1063.95 124.001 1069.32 124.001ZM1147.14 210.5H1127.61V126.099H1147.14V210.5ZM1149.24 101.408C1149.24 105.066 1148.05 107.97 1145.69 110.122C1143.32 112.274 1140.52 113.35 1137.29 113.35C1133.96 113.35 1131.11 112.274 1128.74 110.122C1126.37 107.97 1125.19 105.066 1125.19 101.408C1125.19 97.6421 1126.37 94.6835 1128.74 92.5317C1131.11 90.38 1133.96 89.3041 1137.29 89.3041C1140.52 89.3041 1143.32 90.38 1145.69 92.5317C1148.05 94.6835 1149.24 97.6421 1149.24 101.408Z" fill="white"/>
<defs>
<clipPath id="clip0_13_12">
<rect width="299" height="284.465" fill="white" transform="translate(7 9)"/>
</clipPath>
</defs>
</svg>
