<svg width="313" height="302" viewBox="0 0 313 302" fill="none" xmlns="http://www.w3.org/2000/svg">
<path d="M0 74.5739C0 33.3879 33.3879 0 74.5739 0H313V227.426C313 268.612 279.612 302 238.426 302H0V74.5739Z" fill="#27272A"/>
<g clip-path="url(#clip0_3_83)">
<path d="M117.369 237.333C117.369 227.357 117.369 227.357 107.586 227.357C88.2618 227.357 81.2483 220.446 81.2483 201.385V191.529C57.1076 190.687 52.5423 188.333 47.8867 179.609C45.1275 174.441 45.1275 174.441 45.1074 117.007C45.0874 34.7922 37.3314 42.5549 119.466 42.5549C178.524 42.5549 178.524 42.5549 183.671 45.5598C191.106 49.9069 194.005 56.097 194.467 68.5875C194.818 77.8827 194.818 77.8827 205.002 78.2933C223.715 79.0446 230.748 86.2764 230.748 104.777C230.748 113.932 230.748 113.932 240.762 114.342C253.063 114.843 259.725 117.908 263.859 124.96C266.367 129.227 266.367 129.227 266.648 187.292C266.979 255.794 267.331 253.139 257.177 259.68C251.317 263.456 251.317 263.456 191.868 263.436C132.419 263.416 132.419 263.416 127.794 260.702C120.229 256.264 117.369 249.854 117.369 237.333ZM120.409 207.074C120.419 215.748 120.65 223.411 120.911 224.102C121.282 225.083 131.346 225.304 167.537 225.103C213.691 224.853 213.691 224.853 218.407 222.179C227.959 216.75 227.738 218.152 227.738 117.177H212.246C200.949 117.177 196.534 117.517 195.942 118.429C195.49 119.12 194.908 132.622 194.628 148.438C193.875 191.398 193.985 191.298 120.379 191.298L120.409 207.074ZM145.212 81.128C78.76 81.148 84.3186 75.5889 84.2584 189.295H117.369V160.117C117.369 115.324 117.52 115.174 191.617 115.174V81.118L145.212 81.128Z" fill="#FCFCFC"/>
<path d="M145.212 81.128L191.617 81.118V115.174C117.52 115.174 117.369 115.324 117.369 160.117V189.295H84.2584C84.3186 75.5889 78.76 81.148 145.212 81.128Z" fill="#27272A"/>
<path d="M120.409 207.074L120.379 191.298C193.985 191.298 193.875 191.398 194.628 148.438C194.908 132.622 195.49 119.12 195.942 118.429C196.534 117.517 200.949 117.177 212.246 117.177H227.738C227.738 218.152 227.959 216.75 218.407 222.179C213.691 224.853 213.691 224.853 167.537 225.103C131.346 225.304 121.282 225.083 120.911 224.102C120.65 223.411 120.419 215.748 120.409 207.074Z" fill="#27272A"/>
</g>
<defs>
<clipPath id="clip0_3_83">
<rect width="299" height="284.465" fill="white" transform="translate(7 9)"/>
</clipPath>
</defs>
</svg>
