<svg width="1142" height="302" viewBox="0 0 1142 302" fill="none" xmlns="http://www.w3.org/2000/svg">
<path d="M426.401 93.0345C442.646 93.0345 455.073 95.9931 463.68 101.91C472.394 107.828 476.751 117.08 476.751 129.668C476.751 136.23 475.568 141.879 473.201 146.612C470.942 151.239 467.606 155.058 463.195 158.07C458.784 160.975 453.405 163.127 447.057 164.526C440.71 165.924 433.448 166.623 425.271 166.623H415.104V206H394.771V95.7779C399.504 94.7021 404.722 94.0028 410.424 93.68C416.234 93.2497 421.56 93.0345 426.401 93.0345ZM427.853 110.625C422.689 110.625 418.44 110.786 415.104 111.109V149.194H424.949C434.739 149.194 442.27 147.85 447.542 145.16C452.813 142.363 455.449 137.145 455.449 129.506C455.449 125.848 454.75 122.782 453.351 120.308C451.953 117.833 450.016 115.897 447.542 114.498C445.067 113.099 442.109 112.131 438.666 111.593C435.331 110.948 431.726 110.625 427.853 110.625ZM485.099 164.203C485.099 156.779 486.175 150.27 488.326 144.676C490.586 139.081 493.544 134.455 497.202 130.797C500.86 127.032 505.056 124.234 509.79 122.406C514.524 120.469 519.365 119.501 524.314 119.501C535.933 119.501 544.971 123.105 551.426 130.313C557.989 137.521 561.27 148.28 561.27 162.589C561.27 163.665 561.216 164.902 561.109 166.301C561.109 167.592 561.055 168.775 560.947 169.851H505.271C505.809 176.629 508.176 181.901 512.372 185.666C516.675 189.324 522.862 191.153 530.931 191.153C535.664 191.153 539.968 190.723 543.841 189.862C547.822 189.001 550.942 188.087 553.201 187.119L555.783 203.095C554.707 203.633 553.201 204.225 551.264 204.87C549.435 205.408 547.284 205.892 544.809 206.323C542.442 206.861 539.86 207.291 537.063 207.614C534.266 207.937 531.415 208.098 528.51 208.098C521.086 208.098 514.631 207.022 509.144 204.87C503.657 202.611 499.139 199.545 495.589 195.672C492.038 191.691 489.402 187.065 487.681 181.793C485.96 176.414 485.099 170.55 485.099 164.203ZM541.743 155.488C541.743 152.799 541.366 150.27 540.613 147.903C539.86 145.429 538.731 143.331 537.224 141.61C535.826 139.781 534.051 138.382 531.899 137.414C529.855 136.338 527.38 135.8 524.475 135.8C521.463 135.8 518.827 136.392 516.568 137.575C514.309 138.651 512.372 140.103 510.758 141.932C509.252 143.761 508.069 145.859 507.208 148.226C506.347 150.593 505.755 153.014 505.433 155.488H541.743ZM630.064 139.189C628.45 138.651 626.191 138.113 623.286 137.575C620.489 136.93 617.208 136.607 613.442 136.607C611.29 136.607 608.977 136.822 606.503 137.252C604.136 137.683 602.468 138.059 601.5 138.382V206H581.973V125.633C585.739 124.234 590.419 122.943 596.013 121.76C601.715 120.469 608.009 119.823 614.894 119.823C616.185 119.823 617.692 119.931 619.413 120.146C621.134 120.254 622.856 120.469 624.577 120.792C626.299 121.007 627.966 121.33 629.58 121.76C631.194 122.083 632.485 122.406 633.453 122.728L630.064 139.189ZM642.381 163.88C642.381 157.64 643.349 151.83 645.285 146.451C647.222 140.964 649.965 136.23 653.516 132.25C657.174 128.269 661.585 125.149 666.749 122.89C671.913 120.63 677.723 119.501 684.178 119.501C692.139 119.501 699.67 120.953 706.771 123.858L702.575 139.834C700.316 138.866 697.734 138.059 694.829 137.414C692.032 136.768 689.019 136.446 685.792 136.446C678.153 136.446 672.343 138.866 668.363 143.708C664.382 148.441 662.392 155.166 662.392 163.88C662.392 172.272 664.274 178.942 668.04 183.891C671.805 188.732 678.153 191.153 687.083 191.153C690.418 191.153 693.699 190.83 696.927 190.185C700.154 189.539 702.952 188.732 705.319 187.764L708.062 203.902C705.91 204.978 702.629 205.946 698.218 206.807C693.914 207.668 689.45 208.098 684.823 208.098C677.615 208.098 671.321 207.022 665.942 204.87C660.67 202.611 656.259 199.545 652.709 195.672C649.266 191.691 646.684 187.011 644.963 181.632C643.241 176.145 642.381 170.228 642.381 163.88ZM718.5 164.203C718.5 156.779 719.576 150.27 721.728 144.676C723.987 139.081 726.946 134.455 730.603 130.797C734.261 127.032 738.457 124.234 743.191 122.406C747.925 120.469 752.766 119.501 757.715 119.501C769.334 119.501 778.372 123.105 784.827 130.313C791.39 137.521 794.671 148.28 794.671 162.589C794.671 163.665 794.617 164.902 794.51 166.301C794.51 167.592 794.456 168.775 794.348 169.851H738.672C739.21 176.629 741.577 181.901 745.773 185.666C750.077 189.324 756.263 191.153 764.332 191.153C769.066 191.153 773.369 190.723 777.242 189.862C781.223 189.001 784.343 188.087 786.602 187.119L789.184 203.095C788.108 203.633 786.602 204.225 784.666 204.87C782.837 205.408 780.685 205.892 778.21 206.323C775.843 206.861 773.261 207.291 770.464 207.614C767.667 207.937 764.816 208.098 761.911 208.098C754.488 208.098 748.032 207.022 742.546 204.87C737.059 202.611 732.54 199.545 728.99 195.672C725.439 191.691 722.803 187.065 721.082 181.793C719.361 176.414 718.5 170.55 718.5 164.203ZM775.144 155.488C775.144 152.799 774.768 150.27 774.014 147.903C773.261 145.429 772.132 143.331 770.626 141.61C769.227 139.781 767.452 138.382 765.3 137.414C763.256 136.338 760.781 135.8 757.877 135.8C754.864 135.8 752.228 136.392 749.969 137.575C747.71 138.651 745.773 140.103 744.159 141.932C742.653 143.761 741.47 145.859 740.609 148.226C739.748 150.593 739.157 153.014 738.834 155.488H775.144ZM871.373 164.203C871.373 155.488 869.382 148.71 865.402 143.869C861.529 139.028 855.235 136.607 846.52 136.607C844.691 136.607 842.755 136.714 840.711 136.93C838.774 137.037 836.838 137.36 834.901 137.898V186.15C836.622 187.334 838.882 188.463 841.679 189.539C844.584 190.508 847.65 190.992 850.878 190.992C857.978 190.992 863.142 188.571 866.37 183.73C869.705 178.888 871.373 172.379 871.373 164.203ZM891.384 163.88C891.384 170.335 890.523 176.252 888.802 181.632C887.188 187.011 884.821 191.637 881.701 195.51C878.581 199.383 874.654 202.396 869.92 204.548C865.294 206.699 860.022 207.775 854.105 207.775C850.125 207.775 846.467 207.291 843.131 206.323C839.796 205.354 837.053 204.279 834.901 203.095V235.855H815.374V124.342C819.355 123.266 824.25 122.244 830.06 121.276C835.869 120.308 842.002 119.823 848.457 119.823C855.127 119.823 861.098 120.846 866.37 122.89C871.642 124.934 876.107 127.892 879.765 131.766C883.53 135.531 886.381 140.157 888.318 145.644C890.362 151.023 891.384 157.102 891.384 163.88ZM910.54 99.3283L930.067 96.1007V121.599H960.084V137.898H930.067V172.272C930.067 179.05 931.143 183.891 933.295 186.796C935.446 189.701 939.104 191.153 944.268 191.153C947.819 191.153 950.939 190.777 953.628 190.023C956.426 189.27 958.631 188.571 960.245 187.926L963.472 203.418C961.213 204.386 958.255 205.354 954.597 206.323C950.939 207.399 946.635 207.937 941.686 207.937C935.661 207.937 930.605 207.13 926.517 205.516C922.536 203.902 919.362 201.589 916.995 198.577C914.628 195.457 912.961 191.745 911.992 187.441C911.024 183.03 910.54 178.028 910.54 172.433V99.3283ZM1002.33 195.349C1002.33 199.114 1001.03 202.181 998.453 204.548C995.978 206.914 992.966 208.098 989.415 208.098C985.758 208.098 982.691 206.914 980.217 204.548C977.742 202.181 976.505 199.114 976.505 195.349C976.505 191.583 977.742 188.517 980.217 186.15C982.691 183.676 985.758 182.439 989.415 182.439C992.966 182.439 995.978 183.676 998.453 186.15C1001.03 188.517 1002.33 191.583 1002.33 195.349ZM1052.94 192.283C1058.96 192.283 1063.54 191.96 1066.66 191.314V169.69C1065.58 169.367 1064.02 169.044 1061.98 168.721C1059.93 168.399 1057.67 168.237 1055.2 168.237C1053.05 168.237 1050.84 168.399 1048.58 168.721C1046.43 169.044 1044.44 169.636 1042.61 170.497C1040.89 171.357 1039.49 172.594 1038.41 174.208C1037.34 175.714 1036.8 177.651 1036.8 180.018C1036.8 184.644 1038.25 187.872 1041.16 189.701C1044.06 191.422 1047.99 192.283 1052.94 192.283ZM1051.32 119.501C1057.78 119.501 1063.21 120.308 1067.62 121.921C1072.03 123.535 1075.53 125.794 1078.11 128.699C1080.8 131.604 1082.69 135.154 1083.76 139.35C1084.95 143.439 1085.54 147.957 1085.54 152.906V204.063C1082.52 204.709 1077.95 205.462 1071.82 206.323C1065.79 207.291 1058.96 207.775 1051.32 207.775C1046.27 207.775 1041.64 207.291 1037.45 206.323C1033.25 205.354 1029.65 203.794 1026.63 201.643C1023.73 199.491 1021.42 196.694 1019.69 193.251C1018.08 189.808 1017.27 185.559 1017.27 180.502C1017.27 175.661 1018.19 171.572 1020.02 168.237C1021.95 164.902 1024.54 162.212 1027.76 160.168C1030.99 158.017 1034.7 156.51 1038.9 155.65C1043.2 154.681 1047.67 154.197 1052.29 154.197C1054.44 154.197 1056.7 154.359 1059.07 154.681C1061.44 154.897 1063.97 155.327 1066.66 155.972V152.745C1066.66 150.486 1066.39 148.334 1065.85 146.29C1065.31 144.246 1064.34 142.47 1062.94 140.964C1061.65 139.35 1059.88 138.113 1057.62 137.252C1055.47 136.392 1052.72 135.961 1049.39 135.961C1044.87 135.961 1040.73 136.284 1036.96 136.93C1033.2 137.575 1030.13 138.328 1027.76 139.189L1025.34 123.374C1027.82 122.513 1031.42 121.652 1036.15 120.792C1040.89 119.931 1045.95 119.501 1051.32 119.501ZM1129.14 206H1109.61V121.599H1129.14V206ZM1131.24 96.9076C1131.24 100.566 1130.05 103.47 1127.69 105.622C1125.32 107.774 1122.52 108.85 1119.29 108.85C1115.96 108.85 1113.11 107.774 1110.74 105.622C1108.37 103.47 1107.19 100.566 1107.19 96.9076C1107.19 93.1421 1108.37 90.1835 1110.74 88.0317C1113.11 85.88 1115.96 84.8041 1119.29 84.8041C1122.52 84.8041 1125.32 85.88 1127.69 88.0317C1130.05 90.1835 1131.24 93.1421 1131.24 96.9076Z" fill="#27272A"/>
<path d="M0 74.5739C0 33.3879 33.3879 0 74.5739 0H313V227.426C313 268.612 279.612 302 238.426 302H0V74.5739Z" fill="#27272A"/>
<g clip-path="url(#clip0_3_86)">
<path d="M117.369 237.333C117.369 227.357 117.369 227.357 107.586 227.357C88.2618 227.357 81.2483 220.446 81.2483 201.385V191.529C57.1076 190.687 52.5423 188.333 47.8867 179.609C45.1275 174.441 45.1275 174.441 45.1074 117.007C45.0874 34.7922 37.3314 42.5549 119.466 42.5549C178.524 42.5549 178.524 42.5549 183.671 45.5598C191.106 49.9069 194.005 56.097 194.467 68.5875C194.818 77.8827 194.818 77.8827 205.002 78.2933C223.715 79.0446 230.748 86.2764 230.748 104.777C230.748 113.932 230.748 113.932 240.762 114.342C253.063 114.843 259.725 117.908 263.859 124.96C266.367 129.227 266.367 129.227 266.648 187.292C266.979 255.794 267.331 253.139 257.177 259.68C251.317 263.456 251.317 263.456 191.868 263.436C132.419 263.416 132.419 263.416 127.794 260.702C120.229 256.264 117.369 249.854 117.369 237.333ZM120.409 207.074C120.419 215.748 120.65 223.411 120.911 224.102C121.282 225.083 131.346 225.304 167.537 225.103C213.691 224.853 213.691 224.853 218.407 222.179C227.959 216.75 227.738 218.152 227.738 117.177H212.246C200.949 117.177 196.534 117.517 195.942 118.429C195.49 119.12 194.908 132.622 194.628 148.438C193.875 191.398 193.985 191.298 120.379 191.298L120.409 207.074ZM145.212 81.128C78.76 81.148 84.3186 75.5889 84.2584 189.295H117.369V160.117C117.369 115.324 117.52 115.174 191.617 115.174V81.118L145.212 81.128Z" fill="#FCFCFC"/>
<path d="M145.212 81.128L191.617 81.118V115.174C117.52 115.174 117.369 115.324 117.369 160.117V189.295H84.2584C84.3186 75.5889 78.76 81.148 145.212 81.128Z" fill="#27272A"/>
<path d="M120.409 207.074L120.379 191.298C193.985 191.298 193.875 191.398 194.628 148.438C194.908 132.622 195.49 119.12 195.942 118.429C196.534 117.517 200.949 117.177 212.246 117.177H227.738C227.738 218.152 227.959 216.75 218.407 222.179C213.691 224.853 213.691 224.853 167.537 225.103C131.346 225.304 121.282 225.083 120.911 224.102C120.65 223.411 120.419 215.748 120.409 207.074Z" fill="#27272A"/>
</g>
<defs>
<clipPath id="clip0_3_86">
<rect width="299" height="284.465" fill="white" transform="translate(7 9)"/>
</clipPath>
</defs>
</svg>
